<?xml version="1.0" encoding="utf-8"?>
<!-- Generator: Adobe Illustrator 16.0.0, SVG Export Plug-In . SVG Version: 6.00 Build 0)  -->
<!DOCTYPE svg PUBLIC "-//W3C//DTD SVG 1.1//EN" "http://www.w3.org/Graphics/SVG/1.1/DTD/svg11.dtd">
<svg version="1.1" id="Calque_1" xmlns="http://www.w3.org/2000/svg" xmlns:xlink="http://www.w3.org/1999/xlink" x="0px" y="0px"
	 width="239px" height="43px" viewBox="0 0 239 43" enable-background="new 0 0 239 43" xml:space="preserve">
<g id="Calque_2">
</g>
<g id="Calque_1_1_">
	<path fill="#29495C" d="M28.554,19.294c-1.044,1.925-2.647,3.479-4.81,4.659c-2.162,1.184-4.847,1.771-8.051,1.771h-5.93V43H0.201
		V0h15.492c3.13,0,5.776,0.552,7.939,1.658c2.161,1.105,3.783,2.631,4.865,4.573c1.081,1.944,1.621,4.174,1.621,6.69
		C30.119,15.246,29.598,17.371,28.554,19.294z M19.047,16.636c0.896-0.876,1.342-2.115,1.342-3.716s-0.446-2.839-1.342-3.716
		c-0.895-0.877-2.256-1.315-4.083-1.315h-5.2v10.062h5.2C16.791,17.951,18.152,17.513,19.047,16.636z"/>
	<path fill="#29495C" d="M40.7,0v43.23h-9.99V0H40.7z"/>
	<path fill="#29495C" d="M44.339,18.452c1.209-2.417,2.854-4.277,4.938-5.579c2.082-1.302,4.407-1.953,6.973-1.953
		c2.195,0,4.12,0.447,5.775,1.339c1.654,0.892,2.93,2.064,3.822,3.515v-4.408h9.54v31.132h-9.54V38.09
		c-0.93,1.451-2.224,2.622-3.878,3.516c-1.655,0.893-3.581,1.338-5.774,1.338c-2.53,0-4.836-0.659-6.918-1.979
		c-2.084-1.319-3.729-3.198-4.938-5.635c-1.208-2.437-1.813-5.253-1.813-8.453C42.526,23.678,43.131,20.87,44.339,18.452z
		 M63.866,21.297c-1.32-1.376-2.929-2.064-4.825-2.064s-3.507,0.679-4.826,2.036c-1.32,1.358-1.981,3.228-1.981,5.607
		c0,2.381,0.661,4.269,1.981,5.663c1.319,1.395,2.93,2.092,4.826,2.092s3.505-0.688,4.825-2.064
		c1.319-1.375,1.981-3.254,1.981-5.635C65.848,24.553,65.186,22.673,63.866,21.297z"/>
	<path fill="#29495C" d="M139.484,14.886c2.149,2.335,3.227,5.541,3.227,9.62v17.971h-9.371V25.773c0-2.058-0.533-3.655-1.6-4.795
		c-1.066-1.139-2.5-1.709-4.299-1.709c-1.803,0-3.235,0.57-4.301,1.709c-1.066,1.14-1.599,2.738-1.599,4.795v16.703h-9.428v-30.76
		h9.428v4.079c0.954-1.359,2.24-2.434,3.856-3.225c1.617-0.79,3.438-1.185,5.459-1.185C134.46,11.386,137.336,12.553,139.484,14.886
		z"/>
	<path fill="#29495C" d="M105.652,14.886c2.149,2.335,3.226,5.541,3.226,9.62v17.971h-9.371V25.773c0-2.058-0.534-3.655-1.6-4.795
		c-1.066-1.139-2.5-1.709-4.299-1.709c-1.802,0-3.235,0.57-4.301,1.709c-1.066,1.14-1.598,2.738-1.598,4.795v16.703h-9.428v-30.76
		h9.428v4.079c0.954-1.359,2.24-2.434,3.857-3.225c1.617-0.79,3.437-1.185,5.458-1.185
		C100.627,11.386,103.503,12.553,105.652,14.886z"/>
	<path fill="#FFD700" d="M152.092,41.479c-2.551-1.362-4.557-3.31-6.018-5.842c-1.461-2.531-2.19-5.492-2.19-8.88
		c0-3.349,0.739-6.299,2.22-8.851c1.48-2.55,3.506-4.507,6.076-5.871c2.57-1.363,5.452-2.045,8.646-2.045
		c3.191,0,6.074,0.682,8.646,2.045c2.57,1.364,4.596,3.321,6.075,5.871c1.479,2.552,2.22,5.502,2.22,8.851
		c0,3.351-0.75,6.3-2.248,8.851c-1.5,2.552-3.545,4.509-6.135,5.873c-2.591,1.363-5.482,2.043-8.676,2.043
		S154.643,42.844,152.092,41.479z M165.587,32.773c1.345-1.401,2.017-3.406,2.017-6.017c0-2.608-0.652-4.614-1.957-6.018
		c-1.307-1.402-2.912-2.103-4.819-2.103c-1.948,0-3.563,0.692-4.851,2.074c-1.285,1.384-1.928,3.397-1.928,6.047
		c0,2.61,0.633,4.615,1.898,6.017c1.266,1.402,2.854,2.104,4.762,2.104S164.243,34.178,165.587,32.773z"/>
	<path fill="#29495C" d="M177.55,41.277c-0.86-0.801-1.291-1.789-1.291-2.967c0-1.207,0.431-2.219,1.291-3.035
		c0.86-0.814,1.97-1.221,3.328-1.221c1.328,0,2.423,0.406,3.283,1.221c0.86,0.815,1.291,1.828,1.291,3.035
		c0,1.178-0.431,2.168-1.291,2.967c-0.86,0.8-1.955,1.199-3.283,1.199C179.52,42.477,178.41,42.078,177.55,41.277z"/>
	<rect x="192.75" y="9.99" fill="#29495C" width="41.188" height="8.054"/>
	<rect x="192.75" y="34.238" fill="#29495C" width="41.188" height="8.054"/>
	<polygon fill="#FFD700" points="233.938,30.105 192.75,30.105 192.75,22.051 233.938,22.051 239,26.078 	"/>
</g>
</svg>
